<?xml version="1.0" standalone="no"?>
<!DOCTYPE svg PUBLIC "-//W3C//DTD SVG 20010904//EN"
 "http://www.w3.org/TR/2001/REC-SVG-20010904/DTD/svg10.dtd">
<svg version="1.0" xmlns="http://www.w3.org/2000/svg"
 width="500.000000pt" height="500.000000pt" viewBox="0 0 500.000000 500.000000"
 preserveAspectRatio="xMidYMid meet">
<metadata>
Created by potrace 1.11, written by Peter Selinger 2001-2013
</metadata>
<g transform="translate(0.000000,500.000000) scale(0.100000,-0.100000)"
fill="#000000" stroke="none">
<path d="M1834 3493 c-42 -76 -87 -156 -99 -178 -13 -22 -92 -166 -177 -320
-148 -271 -155 -280 -186 -283 -38 -4 -43 -22 -6 -22 l25 0 -45 -84 c-26 -45
-46 -86 -46 -90 0 -3 45 -6 100 -6 93 0 100 -1 100 -20 0 -19 -7 -20 -96 -20
-53 0 -94 -3 -92 -7 2 -5 20 -41 41 -80 l37 -73 54 0 c57 0 66 7 66 56 0 23 3
24 69 24 73 0 81 -5 81 -56 0 -21 5 -24 36 -24 l36 0 -36 64 c-21 37 -36 78
-36 96 l0 33 118 -5 c161 -7 198 -27 50 -28 -60 0 -108 -2 -108 -4 0 -3 19
-39 42 -81 l41 -77 141 4 c137 5 176 11 176 28 0 19 -74 130 -86 130 -8 0 -14
9 -14 20 0 11 6 20 14 20 8 0 34 34 58 75 43 75 55 84 75 64 9 -9 4 -25 -18
-64 -16 -28 -29 -57 -29 -63 0 -9 47 -12 169 -12 l169 0 49 88 c35 64 54 88
71 90 31 5 29 -25 -8 -94 -32 -60 -30 -84 6 -84 15 0 24 -6 24 -15 0 -8 -8
-15 -18 -15 -25 0 -42 -21 -87 -102 l-37 -68 71 0 71 0 0 40 0 40 75 0 75 0 0
-40 c0 -37 2 -40 28 -40 24 0 32 10 69 79 23 43 39 82 36 85 -4 3 -35 6 -70 6
-49 0 -63 3 -63 15 0 12 14 15 70 15 39 0 70 3 70 7 0 3 -18 39 -40 79 -22 40
-40 78 -40 84 0 6 12 10 26 8 22 -2 36 -19 76 -90 l49 -88 170 0 c93 0 169 2
169 5 0 5 -238 441 -305 560 -12 22 -33 59 -46 82 -27 47 -39 53 -54 23 -6
-11 -43 -78 -83 -150 l-73 -131 21 -29 c11 -15 20 -31 20 -34 0 -3 14 -28 30
-54 37 -61 38 -74 3 -70 -22 2 -34 15 -62 66 -19 34 -39 61 -44 59 -5 -1 -24
-30 -42 -62 -25 -47 -38 -61 -58 -63 -35 -4 -34 10 2 67 24 38 248 442 339
611 13 25 46 86 73 136 27 50 49 94 49 98 0 3 -76 6 -169 6 l-169 0 -30 -47
c-24 -39 -148 -260 -257 -458 -81 -147 -136 -247 -190 -347 -30 -55 -41 -68
-61 -68 -13 0 -24 2 -24 5 0 5 94 176 177 323 18 32 43 77 56 102 37 69 77
140 171 311 47 86 86 162 86 168 0 8 -52 11 -169 11 l-169 0 -65 -112 c-36
-62 -111 -196 -167 -298 -56 -102 -112 -203 -124 -225 -45 -80 -100 -181 -127
-230 -20 -38 -33 -51 -53 -53 -14 -2 -26 -1 -26 2 0 3 32 63 72 133 190 340
418 759 418 771 0 9 -40 12 -169 12 l-169 0 -78 -137z m-49 -825 c-4 -13 -17
-39 -29 -58 -12 -19 -27 -47 -34 -62 -8 -20 -19 -28 -37 -28 -14 0 -25 4 -25
10 0 5 19 44 42 85 34 60 46 75 66 75 20 0 22 -4 17 -22z m-167 -45 c-21 -2
-55 -2 -75 0 -21 2 -4 4 37 4 41 0 58 -2 38 -4z m620 0 c-10 -2 -26 -2 -35 0
-10 3 -2 5 17 5 19 0 27 -2 18 -5z m480 0 c-21 -2 -57 -2 -80 0 -24 2 -7 4 37
4 44 0 63 -2 43 -4z"/>
<path d="M3035 3431 l-87 -161 142 -257 c78 -142 172 -312 209 -378 l68 -120
154 -6 c159 -6 405 -38 497 -65 29 -8 58 -23 65 -34 10 -16 23 -20 74 -20 55
0 63 2 63 18 0 50 -85 82 -305 116 -228 35 -226 35 -253 84 l-23 41 24 15 c33
22 170 39 257 32 84 -7 162 -30 180 -52 7 -7 28 -14 47 -14 33 0 34 1 31 38
l-3 37 -75 8 c-82 9 -419 3 -462 -8 -25 -7 -29 -3 -69 76 -23 46 -70 136 -104
199 -34 63 -80 149 -102 190 -142 268 -209 390 -227 408 -11 11 -29 -15 -101
-147z m563 -808 c-15 -2 -42 -2 -60 0 -18 2 -6 4 27 4 33 0 48 -2 33 -4z"/>
<path d="M770 2700 c0 -6 33 -10 80 -10 l80 0 0 -30 0 -30 75 0 76 0 6 30 6
30 78 0 c46 0 79 4 79 10 0 6 -87 10 -240 10 -153 0 -240 -4 -240 -10z"/>
<path d="M932 2508 l3 -113 71 -3 71 -3 6 77 c4 42 7 94 7 116 l0 38 -80 0
-81 0 3 -112z"/>
<path d="M4120 2610 c0 -5 14 -10 30 -10 17 0 30 5 30 10 0 6 -13 10 -30 10
-16 0 -30 -4 -30 -10z"/>
<path d="M2916 2399 c-25 -45 -46 -83 -46 -86 0 -10 296 5 326 16 23 9 40 28
63 71 17 32 31 63 31 69 0 8 -51 11 -164 11 l-165 0 -45 -81z"/>
<path d="M3356 2455 c-10 -15 -26 -25 -40 -25 -20 0 -36 -16 -36 -36 0 -2 14
-4 31 -4 31 0 31 -1 25 -37 -3 -21 -6 -43 -6 -50 0 -6 -16 -13 -36 -15 l-37
-3 -129 -235 c-72 -129 -150 -273 -175 -320 -25 -47 -68 -125 -96 -175 -76
-138 -97 -177 -97 -187 0 -5 75 -7 167 -6 l166 3 69 120 c89 153 425 765 433
787 6 14 -2 18 -44 24 l-51 7 0 43 c0 38 3 44 21 44 12 0 37 -13 56 -30 18
-16 38 -30 42 -30 10 0 81 124 81 140 0 6 -65 10 -164 10 -164 0 -164 0 -180
-25z"/>
<path d="M2130 2465 c0 -12 45 -95 51 -95 4 0 11 5 14 10 3 6 22 10 42 10 32
0 35 -2 29 -22 -3 -13 -6 -35 -6 -50 0 -22 -5 -28 -21 -28 -20 0 -19 -3 13
-62 19 -34 39 -63 45 -65 11 -4 163 273 163 296 0 8 -48 11 -165 11 -91 0
-165 -2 -165 -5z"/>
<path d="M1410 2280 c0 -16 436 -825 462 -858 13 -15 16 -10 120 176 l69 123
-137 247 c-75 136 -147 264 -158 284 l-21 38 -167 0 c-102 0 -168 -4 -168 -10z"/>
<path d="M1824 2273 c13 -35 261 -483 267 -483 4 0 44 66 89 148 l82 147 -39
74 c-21 41 -46 87 -55 102 l-18 29 -166 0 c-154 0 -166 -1 -160 -17z"/>
<path d="M2376 2167 c-100 -176 -424 -771 -432 -791 -6 -14 10 -16 158 -16
145 0 167 2 180 18 8 9 59 96 113 192 103 184 357 646 381 693 l15 27 -173 0
-173 -1 -69 -122z"/>
<path d="M2824 2237 c-43 -71 -461 -838 -469 -859 -7 -17 5 -18 158 -18 l166
0 19 28 c11 15 75 128 144 252 69 124 143 257 165 295 22 39 66 120 98 180 32
61 61 115 65 120 4 6 11 20 14 33 l7 22 -168 0 -168 -1 -31 -52z"/>
</g>
</svg>
